<svg width="25" height="25" viewBox="0 0 25 25" fill="none" xmlns="http://www.w3.org/2000/svg">
<path fill-rule="evenodd" clip-rule="evenodd" d="M8.33333 9.37512C8.33333 8.27005 8.77232 7.21024 9.55372 6.42884C10.3351 5.64744 11.3949 5.20845 12.5 5.20845C13.6051 5.20845 14.6649 5.64744 15.4463 6.42884C16.2277 7.21024 16.6667 8.27005 16.6667 9.37512C16.6667 10.4802 16.2277 11.54 15.4463 12.3214C14.6649 13.1028 13.6051 13.5418 12.5 13.5418C11.3949 13.5418 10.3351 13.1028 9.55372 12.3214C8.77232 11.54 8.33333 10.4802 8.33333 9.37512V9.37512ZM16.4833 14.1907C17.4745 13.3708 18.1885 12.265 18.528 11.0242C18.8674 9.78349 18.8157 8.46822 18.38 7.25792C17.9443 6.04761 17.1457 5.00123 16.0933 4.26157C15.0408 3.52191 13.7858 3.125 12.4995 3.125C11.2131 3.125 9.95811 3.52191 8.90568 4.26157C7.85326 5.00123 7.05469 6.04761 6.61896 7.25792C6.18323 8.46822 6.13156 9.78349 6.47101 11.0242C6.81045 12.265 7.52447 13.3708 8.51562 14.1907C5.19375 15.3605 3.125 17.9657 3.125 20.8335C3.125 21.1097 3.23475 21.3747 3.4301 21.57C3.62545 21.7654 3.8904 21.8751 4.16667 21.8751C4.44293 21.8751 4.70789 21.7654 4.90324 21.57C5.09859 21.3747 5.20833 21.1097 5.20833 20.8335C5.20833 18.4689 7.66146 15.6251 12.5 15.6251C17.3385 15.6251 19.7917 18.4689 19.7917 20.8335C19.7917 21.1097 19.9014 21.3747 20.0968 21.57C20.2921 21.7654 20.5571 21.8751 20.8333 21.8751C21.1096 21.8751 21.3746 21.7654 21.5699 21.57C21.7653 21.3747 21.875 21.1097 21.875 20.8335C21.875 17.9657 19.8083 15.3605 16.4833 14.1907Z" fill="#201F25"/>
</svg>
