<svg width="28" height="25" viewBox="0 0 28 25" fill="none" xmlns="http://www.w3.org/2000/svg">
<path fill-rule="evenodd" clip-rule="evenodd" d="M18.7268 5.21317C17.898 5.21317 17.1031 5.54241 16.5171 6.12846C15.931 6.71452 15.6018 7.50937 15.6018 8.33817C15.6018 9.16697 15.931 9.96183 16.5171 10.5479C17.1031 11.1339 17.898 11.4632 18.7268 11.4632C19.5556 11.4632 20.3505 11.1339 20.9365 10.5479C21.5226 9.96183 21.8518 9.16697 21.8518 8.33817C21.8518 7.50937 21.5226 6.71452 20.9365 6.12846C20.3505 5.54241 19.5556 5.21317 18.7268 5.21317ZM13.5185 8.33817C13.5185 7.48917 13.726 6.65304 14.1231 5.90259C14.5201 5.15214 15.0946 4.51013 15.7964 4.03245C16.4983 3.55477 17.3063 3.25592 18.1501 3.16191C18.9939 3.0679 19.8479 3.18159 20.6377 3.49308C21.4275 3.80456 22.1291 4.3044 22.6816 4.94906C23.2341 5.59373 23.6205 6.36367 23.8074 7.19185C23.9943 8.02004 23.9759 8.88135 23.7537 9.70078C23.5316 10.5202 23.1126 11.2729 22.5331 11.8934C24.3002 12.4683 25.828 13.6108 26.8789 15.1434C27.0255 15.3717 27.0772 15.6482 27.0231 15.914C26.9689 16.1799 26.8132 16.4141 26.589 16.5669C26.3648 16.7197 26.0899 16.779 25.8226 16.7322C25.5554 16.6854 25.317 16.5362 25.1581 16.3163C24.1414 14.8246 22.2872 13.5465 19.7685 13.5465C15.7747 13.5465 13.5185 16.7486 13.5185 18.7548C13.5185 19.0311 13.4087 19.2961 13.2134 19.4914C13.018 19.6868 12.7531 19.7965 12.4768 19.7965C12.2005 19.7965 11.9356 19.6868 11.7402 19.4914C11.5449 19.2961 11.4351 19.0311 11.4351 18.7548C11.4351 18.034 11.5997 17.2653 11.9143 16.508C11.8325 16.455 11.7585 16.3908 11.6945 16.3173C10.8393 15.3444 9.51222 14.5882 7.78931 14.5882C6.06639 14.5882 4.73931 15.3444 3.8841 16.3173C3.69892 16.514 3.44457 16.6311 3.17471 16.6438C2.90486 16.6565 2.64062 16.5639 2.43776 16.3855C2.23489 16.2071 2.10927 15.9569 2.0874 15.6876C2.06554 15.4184 2.14914 15.1511 2.32056 14.9423C2.93568 14.2423 3.68158 13.669 4.51639 13.2548C3.84942 12.6039 3.39162 11.769 3.20146 10.8566C3.0113 9.94424 3.09743 8.99591 3.44882 8.13273C3.80022 7.26956 4.40094 6.53072 5.17426 6.0106C5.94758 5.49047 6.85839 5.21266 7.79035 5.21266C8.72231 5.21266 9.63312 5.49047 10.4064 6.0106C11.1798 6.53072 11.7805 7.26956 12.1319 8.13273C12.4833 8.99591 12.5694 9.94424 12.3792 10.8566C12.1891 11.769 11.7313 12.6039 11.0643 13.2548C11.787 13.6135 12.4438 14.0918 13.007 14.6694C13.7145 13.7792 14.5946 13.0411 15.5945 12.4996C14.9492 12.0147 14.4257 11.3862 14.0654 10.6639C13.705 9.94162 13.5178 9.14536 13.5185 8.33817V8.33817ZM5.18514 9.90067C5.18514 9.21001 5.45951 8.54763 5.94788 8.05925C6.43626 7.57087 7.09864 7.29651 7.78931 7.29651C8.47997 7.29651 9.14235 7.57087 9.63073 8.05925C10.1191 8.54763 10.3935 9.21001 10.3935 9.90067C10.3935 10.5913 10.1191 11.2537 9.63073 11.7421C9.14235 12.2305 8.47997 12.5048 7.78931 12.5048C7.09864 12.5048 6.43626 12.2305 5.94788 11.7421C5.45951 11.2537 5.18514 10.5913 5.18514 9.90067Z" fill="#201F25"/>
</svg>
