<svg width="32" height="56" viewBox="0 0 32 56" fill="none" xmlns="http://www.w3.org/2000/svg">
<g id="Icon">
<g id="reshot-icon-feeding-bottle-XQRTKBN7Y2">
<path id="Path" d="M3.448 27.5863V50.0891C3.448 52.8921 5.65821 55.1724 8.37468 55.1724H23.4279C26.1446 55.1724 28.3547 52.892 28.3547 50.0892V27.5862H3.448V27.5863Z" fill="#B2F7EF"/>
<path id="Path_2" d="M25.1544 31.9522H12.211C11.1417 31.9522 10.2749 31.087 10.2749 30.02V27.5862H3.448V50.0891C3.448 52.8966 5.72852 55.1724 8.54153 55.1724H15.3684C12.5598 55.1724 10.2749 52.892 10.2749 50.0892V35.9489C10.2749 34.8818 11.1418 34.0167 12.211 34.0167H25.1544C25.7257 34.0167 26.1889 33.5545 26.1889 32.9843C26.1888 32.4143 25.7257 31.9522 25.1544 31.9522Z" fill="#81F2C9"/>
<path id="Path_3" d="M24.9825 22.7581C24.6837 20.1772 23.2393 17.8405 21.1189 16.5074L19.364 15.4041V11.8987C20.8493 10.7176 21.6963 8.84933 21.631 6.89505C21.5265 3.77094 19.1097 1.22898 16.1298 1.10825C16.0516 1.10505 15.9739 1.10339 15.8963 1.10339C14.4099 1.10339 13.0003 1.69923 11.9269 2.78122C10.7926 3.92456 10.1679 5.46223 10.1679 7.11092C10.1679 9.00814 10.995 10.7515 12.4386 11.8989V15.4042L10.6837 16.5075C8.56326 17.8406 7.1189 20.1773 6.82008 22.7582L6.69653 23.8244V25.3793H25.1058V23.8244L24.9825 22.7581Z" fill="#F4D35E"/>
<path id="Path_4" d="M18.5628 21.4366H13.4417C12.7896 21.4366 12.3683 20.7535 12.6471 20.1611C13.3543 18.6592 14.4912 17.372 15.9254 16.5075L17.7552 15.4042V11.8988C16.2501 10.7514 15.3876 9.00799 15.3876 7.11078C15.3876 5.46199 16.039 3.92444 17.2217 2.7811C17.6989 2.31979 18.2402 1.94776 18.8239 1.67175C18.1223 1.33979 17.3481 1.13992 16.5325 1.10825C16.451 1.10505 16.37 1.10339 16.289 1.10339C14.5085 1.10339 12.8335 1.88983 11.6745 3.29626C10.8852 4.25409 10.4136 5.44687 10.3303 6.68776C10.1921 8.74721 11.0673 10.6666 12.6838 11.899V15.4043L10.854 16.5076C8.64297 17.8406 7.13693 20.1773 6.82536 22.7582L6.69653 23.8244V25.3793H11.7681V23.8244L11.7823 23.7054H18.5625C19.1859 23.7054 19.6913 23.1975 19.6913 22.5711C19.6917 21.9445 19.1862 21.4366 18.5628 21.4366Z" fill="#F2BB4C"/>
<path id="Path_5" d="M4.65897 30.8965C2.79698 30.8965 1.28223 29.1843 1.28223 27.0797V26.9892C1.28223 24.8845 2.79698 23.1724 4.65897 23.1724H27.1438C29.0058 23.1724 30.5205 24.8845 30.5205 26.9892V27.0797C30.5205 29.1843 29.0058 30.8965 27.1438 30.8965H4.65897Z" fill="#F2B5D4"/>
<path id="Path_6" d="M10.9837 27.0797V26.9892C10.9837 24.8845 12.4611 23.1724 14.277 23.1724H4.57552C2.75955 23.1724 1.28223 24.8845 1.28223 26.9892V27.0797C1.28223 29.1843 2.75955 30.8965 4.57552 30.8965H14.277C12.4612 30.8965 10.9837 29.1842 10.9837 27.0797Z" fill="#F79CC6"/>
<path id="Shape" fill-rule="evenodd" clip-rule="evenodd" d="M27.3616 22.0689H25.8514C25.5785 19.2316 23.9868 16.6372 21.5606 15.1566L20.1836 14.316V11.7414C21.6877 10.4235 22.5334 8.4736 22.4634 6.43955C22.3437 2.96585 19.5755 0.13946 16.1611 0.00508515C14.357 -0.0651733 12.6477 0.594523 11.3493 1.8651C10.0503 3.13611 9.3349 4.8457 9.3349 6.67867C9.3349 8.64957 10.1618 10.4709 11.6188 11.742V14.3162L10.2418 15.1567C7.81566 16.6373 6.22395 19.2317 5.95104 22.069H4.4408C2.10198 22.0689 0.199219 24.0043 0.199219 26.3831V26.4661C0.199219 28.3546 1.39883 29.9625 3.06342 30.5455C2.69738 31.0939 2.48316 31.7551 2.48316 32.4663V49.2816C2.48316 52.5297 5.08124 55.1724 8.27461 55.1724H23.5277C26.7212 55.1724 29.3194 52.5299 29.3194 49.2818V32.4664C29.3194 31.7552 29.1053 31.0939 28.7391 30.5456C30.4036 29.9626 31.6033 28.3547 31.6033 26.4662V26.3833C31.6032 24.0043 29.7006 22.0689 27.3616 22.0689ZM11.1231 16.6505L12.916 15.5563C13.174 15.3989 13.3319 15.1153 13.3319 14.8094V11.3248C13.3319 11.0507 13.2053 10.7928 12.9898 10.6282C11.7557 9.68545 11.0479 8.2458 11.0479 6.67867C11.0479 5.32382 11.5768 4.06025 12.5371 3.1207C13.4968 2.1817 14.7601 1.69226 16.0951 1.74614C18.6178 1.84549 20.6633 3.93385 20.7517 6.50054C20.8073 8.1152 20.0825 9.6584 18.8128 10.6283C18.5973 10.7927 18.4707 11.0507 18.4707 11.3247V14.8093C18.4707 15.1152 18.6285 15.3988 18.8865 15.5562L20.6794 16.6504C22.5921 17.8177 23.8631 19.8416 24.1287 22.0687H7.6738C7.9394 19.8418 9.21041 17.8179 11.1231 16.6505ZM27.3616 29.0381C28.7582 29.0381 29.8903 27.8866 29.8903 26.4661H29.8904V26.3834C29.8904 24.9629 28.7583 23.8114 27.3617 23.8114H4.4408C3.04425 23.8114 1.91213 24.9629 1.91213 26.3834V26.4663C1.91213 27.8868 3.04425 29.0383 4.4408 29.0383H17.4582C17.9311 29.0383 18.3146 29.4283 18.3146 29.9094C18.3146 30.3905 17.9312 30.7806 17.4582 30.7806H5.85357C4.938 30.7806 4.19586 31.5355 4.19586 32.4666V34.846H9.04927C9.53111 34.846 9.92003 35.2506 9.90541 35.7439C9.89142 36.2207 9.48248 36.5882 9.01346 36.5882H4.19597V40.6535H11.3332C11.8151 40.6535 12.204 41.0581 12.1894 41.5514C12.1754 42.0283 11.7664 42.3957 11.2974 42.3957H4.19597V46.461H9.04938C9.53121 46.461 9.92013 46.8656 9.90551 47.359C9.89153 47.8358 9.48258 48.2032 9.01357 48.2032H4.19607V49.2817C4.19607 51.5727 6.02213 53.4301 8.27461 53.4301H23.5279C25.7805 53.4301 27.6065 51.5729 27.6065 49.2817V32.4664C27.6065 31.5352 26.8642 30.7803 25.9488 30.7803H22.1332C21.6602 30.7803 21.2767 30.3904 21.2767 29.9092C21.2767 29.4282 21.6601 29.0381 22.1332 29.0381H27.3616Z" fill="black"/>
</g>
</g>
</svg>
