<svg width="49" height="49" viewBox="0 0 49 49" fill="none" xmlns="http://www.w3.org/2000/svg">
<g id="Icon">
<g id="reshot-icon-baby-stroller-BVUGQ6SJ8W">
<path id="Path" d="M6.344 16L6.0926 15.5832C5.55691 14.6949 5.27393 13.6672 5.27393 12.6111C5.27393 10.2278 6.72721 8.09861 8.89033 7.31281C9.46156 7.10525 10.0608 7 10.6716 7C13.6478 7 16.0691 9.51707 16.0691 12.611C16.0691 13.6672 15.786 14.695 15.2504 15.5832L14.999 15.9999H6.344V16Z" fill="#EABB71"/>
<path id="Path_2" d="M27.0181 1C26.3905 1 25.7793 1.22385 25.2736 1.63914L24.71 2.10189C24.2153 2.50791 23.9199 3.15771 23.9199 3.84012C23.9199 4.52214 24.2009 5.15001 24.691 5.5627L25.1454 5.94529L24.691 6.32787C24.2009 6.74057 23.9199 7.36844 23.9199 8.05045C23.9199 8.73247 24.2009 9.36034 24.691 9.77303L25.1454 10.1556L24.691 10.5382C24.201 10.9508 23.9199 11.5787 23.9199 12.2608C23.9199 12.9429 24.2009 13.5707 24.691 13.9834L25.8983 15H28.8268V1H27.0181Z" fill="#F2B5D4"/>
<path id="Path_3" d="M16.1683 34C7.45536 34 0.366943 26.9368 0.366943 18.2549C0.366943 16.9865 1.40248 15.9547 2.67525 15.9547H23.3885L23.5537 16.5343C23.7911 17.367 26.7979 14.371 25.9621 14.1346L25.3804 13.97V3.3002C25.3804 2.03186 26.4159 1 27.6887 1H35.6616C41.6333 1 46.4917 5.84112 46.4917 11.7916V26.9539C46.4917 30.8391 43.3196 34 39.4204 34H16.1683Z" fill="#B2F7EF"/>
<path id="Path_4" d="M45.943 29.7945H22.8923C14.9001 29.7945 8.2876 23.762 7.34419 16H3.63669C2.37495 16 1.34839 17.0293 1.34839 18.2944C1.34839 26.9545 8.37535 34 17.0127 34H40.0634C42.9368 34 45.4105 32.257 46.4918 29.7709C46.3104 29.7852 46.1278 29.7945 45.943 29.7945Z" fill="#81F2C9"/>
<path id="Path_5" d="M25.8827 18C24.8004 18 23.9199 17.1028 23.9199 16C23.9199 14.8972 24.8004 14 25.8827 14C26.965 14 27.8454 14.8972 27.8454 16C27.8454 17.1028 26.965 18 25.8827 18Z" fill="#F2B5D4"/>
<path id="Path_6" d="M16.5597 49C13.5834 49 11.1621 46.5327 11.1621 43.5C11.1621 40.4673 13.5834 38 16.5597 38C19.5359 38 21.9573 40.4673 21.9573 43.5C21.9573 46.5327 19.5359 49 16.5597 49Z" fill="#F4D35E"/>
<path id="Path_7" d="M17.0504 46C15.9681 46 15.0876 45.1028 15.0876 44C15.0876 42.8972 15.9681 42 17.0504 42C18.1327 42 19.0132 42.8972 19.0132 44C19.0132 45.1028 18.1327 46 17.0504 46Z" fill="#DDB247"/>
<path id="Path_8" d="M36.1871 49C33.2109 49 30.7896 46.5327 30.7896 43.5C30.7896 40.4673 33.2109 38 36.1871 38C39.1634 38 41.5847 40.4673 41.5847 43.5C41.5847 46.5327 39.1634 49 36.1871 49Z" fill="#F4D35E"/>
<path id="Path_9" d="M36.6778 46C35.5956 46 34.7151 45.1028 34.7151 44C34.7151 42.8972 35.5956 42 36.6778 42C37.7601 42 38.6406 42.8972 38.6406 44C38.6406 45.1028 37.7601 46 36.6778 46Z" fill="#DDB247"/>
<path id="Shape" fill-rule="evenodd" clip-rule="evenodd" d="M13.1248 43.5C13.1248 42.1215 14.2254 41 15.5782 41C16.931 41 18.0316 42.1215 18.0316 43.5C18.0316 44.8785 16.931 46 15.5782 46C14.2254 46 13.1248 44.8785 13.1248 43.5ZM14.463 43.5C14.463 44.1267 14.9632 44.6364 15.5782 44.6364C16.1932 44.6364 16.6934 44.1267 16.6934 43.5C16.6934 42.8733 16.1932 42.3636 15.5782 42.3636C14.9632 42.3636 14.463 42.8733 14.463 43.5Z" fill="black"/>
<path id="Shape_2" fill-rule="evenodd" clip-rule="evenodd" d="M38.6408 43.5C38.6408 44.8785 37.5401 46 36.1873 46C34.8346 46 33.7339 44.8785 33.7339 43.5C33.7339 42.1215 34.8346 41 36.1873 41C37.5401 41 38.6408 42.1215 38.6408 43.5ZM37.3025 43.5C37.3025 42.8733 36.8023 42.3636 36.1873 42.3636C35.5723 42.3636 35.0721 42.8733 35.0721 43.5C35.0721 44.1267 35.5723 44.6364 36.1873 44.6364C36.8023 44.6364 37.3025 44.1267 37.3025 43.5Z" fill="black"/>
<path id="Path_10" d="M37.9536 15H32.458C32.0785 15 31.771 15.2239 31.771 15.5C31.771 15.7761 32.0785 16 32.458 16H37.9536C38.3331 16 38.6406 15.7761 38.6406 15.5C38.6406 15.2238 38.3331 15 37.9536 15Z" fill="black"/>
<path id="Path_11" d="M35.5087 7.19126C35.2584 6.93625 34.8527 6.93625 34.6024 7.19126L30.9773 10.8853C30.727 11.1403 30.727 11.5538 30.9773 11.8087C31.1025 11.9362 31.2665 12 31.4304 12C31.5944 12 31.7585 11.9362 31.8836 11.8087L35.5088 8.11468C35.759 7.85966 35.759 7.4462 35.5087 7.19126Z" fill="black"/>
<path id="Path_12" d="M20.2011 26H11.9369C11.5089 26 11.1621 26.2239 11.1621 26.5C11.1621 26.7761 11.5089 27 11.9369 27H20.2011C20.6291 27 20.9759 26.7761 20.9759 26.5C20.9759 26.2239 20.6291 26 20.2011 26Z" fill="black"/>
<path id="Shape_3" fill-rule="evenodd" clip-rule="evenodd" d="M46.9669 19.8489V25.2577H24.9326C24.5252 25.2577 24.1701 25.5774 24.1579 25.9922C24.1452 26.4212 24.4829 26.7732 24.9014 26.7732H46.9669V27.0081C46.9669 30.5053 44.1842 33.3402 40.7514 33.3402H17.7045C9.50519 33.3402 2.83491 26.544 2.83594 18.1907C2.83604 17.3507 3.50603 16.67 4.33055 16.67H24.2615C24.6093 17.9175 25.7922 18.8108 27.1531 18.6775C28.4393 18.5515 29.4755 17.4958 29.599 16.1855C29.7297 14.7991 28.8529 13.5941 27.6285 13.2398V3.0382C27.6286 2.19725 28.2978 1.51546 29.1233 1.51546H37.0257C42.5161 1.51546 46.9669 6.0497 46.9669 11.6432V15.7129C46.9669 16.1314 47.2999 16.4706 47.7107 16.4706C48.1215 16.4706 48.4545 16.1314 48.4545 15.7129V11.6432C48.4544 5.21277 43.3377 0 37.0258 0H29.1233C28.2322 0 27.4318 0.40071 26.8848 1.03398V1.01034C25.3811 1.01034 24.1576 2.25669 24.1576 3.7887C24.1576 4.58429 24.4882 5.30235 25.016 5.80929C24.4881 6.31623 24.1576 7.03429 24.1576 7.82987C24.1576 8.62546 24.4882 9.34352 25.016 9.85046C24.4881 10.3574 24.1576 11.0755 24.1576 11.871C24.1576 12.6666 24.4882 13.3847 25.016 13.8916C24.6625 14.2312 24.3979 14.6655 24.2616 15.1545H16.268C16.5658 14.4428 16.72 13.6744 16.72 12.8813C16.72 9.68643 14.1752 7.08559 11.0423 7.0721C10.3808 7.06922 9.81238 6.54621 9.77959 5.87312C9.74455 5.15477 10.3024 4.55787 10.9973 4.54639C11.3819 4.53998 11.7197 4.25583 11.7577 3.86594C11.8019 3.41259 11.4535 3.03073 11.0177 3.03073C9.51402 3.03073 8.29053 4.27708 8.29053 5.8091C8.29053 6.44677 8.50303 7.03448 8.85897 7.50391C6.72792 8.39175 5.31542 10.5151 5.31542 12.8813C5.31542 13.6744 5.46958 14.4427 5.76737 15.1545H4.33055C2.68705 15.1545 1.34783 16.5246 1.34839 18.199C1.35168 27.3841 8.68772 34.8556 17.7045 34.8556H20.7335L24.8646 37.3107L21.1219 39.2171C20.0189 38.0209 18.4263 37.2984 16.6727 37.389C13.8007 37.5374 11.4616 39.886 11.2775 42.8096C11.0571 46.3092 13.8981 49.207 17.3322 48.9883C20.1775 48.8072 22.4769 46.4664 22.6583 43.5679C22.7288 42.4427 22.4815 41.3806 22.0009 40.4639L26.3998 38.2231L31.4388 41.2175C31.1742 41.9617 31.0541 42.776 31.1153 43.6252C31.3227 46.503 33.6176 48.8124 36.4446 48.9888C39.754 49.1955 42.5106 46.5083 42.5042 43.1792C42.4982 40.047 40.0065 37.4535 36.9328 37.3829C34.9457 37.3372 33.181 38.3339 32.1261 39.8715L27.9896 37.4132L33.0107 34.8556H40.7515C45.0057 34.8556 48.4544 31.3422 48.4544 27.0081V19.8487C48.4544 19.4302 48.1214 19.0909 47.7106 19.0909C47.2999 19.0912 46.9669 19.4303 46.9669 19.8489ZM26.1532 2.77147C26.1457 2.85943 26.141 2.94824 26.141 3.0382V4.79656C25.8406 4.56591 25.6452 4.20061 25.6452 3.7887C25.6452 3.37125 25.8459 3.00154 26.1532 2.77147ZM26.1411 8.83792V6.82202C25.8407 7.05267 25.6453 7.41816 25.6453 7.83007C25.6453 8.24197 25.8407 8.60727 26.1411 8.83792ZM26.1411 10.8633V12.8792C25.8407 12.6485 25.6453 12.2832 25.6453 11.8713C25.6453 11.4594 25.8407 11.0939 26.1411 10.8633ZM28.1245 15.9124C28.1245 15.216 27.5684 14.6495 26.8848 14.6495C26.2012 14.6495 25.6452 15.216 25.6452 15.9124C25.6452 16.6088 26.2012 17.1753 26.8848 17.1753C27.5684 17.1753 28.1245 16.6088 28.1245 15.9124ZM9.62656 8.82682C10.0722 8.66814 10.5402 8.58765 11.0175 8.58765C13.3416 8.58765 15.2323 10.5138 15.2323 12.8815C15.2323 13.6958 15.0125 14.4745 14.5939 15.1547H7.44121C7.02271 14.4745 6.80279 13.6958 6.80279 12.8815C6.80279 11.0576 7.9375 9.42812 9.62656 8.82682ZM12.753 43.1908C12.753 45.5585 14.6437 47.4847 16.9678 47.4847C19.2919 47.4847 21.1825 45.5585 21.1825 43.1908C21.1825 40.8231 19.2919 38.897 16.9678 38.897C14.6437 38.897 12.753 40.8231 12.753 43.1908ZM36.8019 38.897C39.126 38.897 41.0167 40.8231 41.0167 43.1908C41.0167 45.5585 39.126 47.4847 36.8019 47.4847C34.4778 47.4847 32.5871 45.5585 32.5871 43.1908C32.5871 40.8231 34.4779 38.897 36.8019 38.897ZM23.6859 34.8557L26.4545 36.5011L29.6844 34.8557H23.6859Z" fill="black"/>
</g>
</g>
</svg>
