<svg width="46" height="48" viewBox="0 0 46 48" fill="none" xmlns="http://www.w3.org/2000/svg">
<g id="Icon">
<g id="001-cubes">
<path id="Path" d="M22.9014 46.2958C22.9014 47.2372 22.1811 48 21.2921 48H2.92026C2.03165 48 1.31104 47.2372 1.31104 46.2958V25.7042C1.31104 24.7629 2.03156 24 2.92026 24H21.2921C22.1811 24 22.9014 24.7628 22.9014 25.7042V46.2958Z" fill="#49B5CE"/>
<path id="Path_2" d="M2.87696 46.2958V25.7042C2.87696 24.7629 3.49408 24 4.25517 24H2.68932C1.92823 24 1.31104 24.7628 1.31104 25.7042V46.2958C1.31104 47.2372 1.92816 48 2.68932 48H4.25509C3.49408 48.0001 2.87696 47.2372 2.87696 46.2958Z" fill="#34A4B7"/>
<path id="Path_3" d="M44.4917 46.2958C44.4917 47.2372 43.7715 48 42.8825 48H24.5107C23.622 48 22.9014 47.2372 22.9014 46.2958V25.7042C22.9014 24.7629 23.6219 24 24.5107 24H42.8825C43.7715 24 44.4917 24.7628 44.4917 25.7042V46.2958Z" fill="#E04E4B"/>
<path id="Path_4" d="M34.6777 22.2958C34.6777 23.237 33.9575 24 33.0685 24H14.6966C13.8079 24 13.0874 23.237 13.0874 22.2958V1.70416C13.0874 0.762933 13.8079 0 14.6966 0H33.0685C33.9575 0 34.6777 0.762837 34.6777 1.70416V22.2958Z" fill="#3BBC56"/>
<ellipse id="Oval" cx="22.9013" cy="13" rx="4.90689" ry="5" fill="#F0C419"/>
<path id="Path_5" d="M26.1854 16.0732C21.639 16.0732 19.0947 11.2789 21.8452 8C19.1246 8.29117 17.0129 10.4102 17.0129 12.9824C17.0129 15.7536 19.4635 18 22.4862 18C24.2547 18 25.8261 17.2305 26.8267 16.0378C26.6162 16.0603 26.4025 16.0732 26.1854 16.0732Z" fill="#F7AC16"/>
<path id="Path_6" d="M37.6161 35.2418C34.9445 35.9064 32.6765 33.0191 33.6526 30.2091C33.8824 29.5476 33.3494 28.866 32.7198 29.0227C30.4057 29.5987 28.7896 31.8275 28.7896 34.4425C28.7896 37.507 31.0531 40 33.8356 40C35.9122 40 37.8065 38.5647 38.5489 36.4279C38.7787 35.7664 38.2457 35.0854 37.6161 35.2418Z" fill="#F0C419"/>
<path id="Path_7" d="M31.1734 33.2299C31.1734 32.0143 31.6159 30.8885 32.3748 30C30.2314 30.7415 28.7896 32.6428 28.7896 34.8373C28.7896 37.6841 31.2637 40 34.305 40C35.9937 40 37.5716 39.2616 38.6033 38.0665C35.0059 39.3257 31.1734 36.8121 31.1734 33.2299Z" fill="#F7AC16"/>
<path id="Path_8" d="M16.968 33.7484C16.8601 33.3958 16.5729 33.1389 16.2269 33.0855L13.9484 32.7341L12.9293 30.5429C12.7746 30.2104 12.4555 30 12.106 30C11.7567 30 11.4375 30.2104 11.2828 30.5429L10.2637 32.7341L7.98505 33.0855C7.63933 33.1389 7.35196 33.3959 7.24424 33.7484C7.13611 34.1012 7.22635 34.4884 7.47633 34.7471L9.12509 36.4526L8.73592 38.8611C8.6769 39.2265 8.81833 39.5958 9.10129 39.8139C9.38382 40.0317 9.75843 40.0607 10.068 39.8881L12.106 38.751L14.1443 39.8881C14.2787 39.9631 14.4251 40 14.5712 40C14.7617 40 14.9511 39.9372 15.111 39.8139C15.3936 39.5959 15.5353 39.2265 15.4763 38.8611L15.0869 36.4526L16.7359 34.7471C16.986 34.4884 17.076 34.1013 16.968 33.7484Z" fill="#F0C419"/>
<path id="Path_9" d="M11.6358 39.6709L12.106 37.0157L10.114 35.1354C9.81188 34.8501 9.70295 34.4233 9.8336 34.0344C9.83763 34.0225 9.84356 34.0116 9.84799 34L7.16721 34.3771C6.74951 34.4359 6.40232 34.7193 6.27217 35.1079C6.14152 35.4968 6.25055 35.9237 6.55258 36.209L8.54461 38.0892L8.07441 40.7445C8.0031 41.1473 8.17398 41.5545 8.51584 41.7949C8.8572 42.035 9.3098 42.067 9.68385 41.8767L12.0296 40.6824C11.7211 40.4388 11.5682 40.0538 11.6358 39.6709Z" fill="#F7AC16"/>
<path id="Path_10" d="M24.4673 46.2958V25.7042C24.4673 24.7629 25.0844 24 25.8455 24H24.2797C23.5186 24 22.9014 24.7628 22.9014 25.7042V46.2958C22.9014 47.2372 23.5185 48 24.2797 48H25.8455C25.0845 48.0001 24.4673 47.2372 24.4673 46.2958Z" fill="#C44137"/>
<path id="Path_11" d="M13.672 22.2957V1.70416C13.672 0.762933 14.2891 0 15.0503 0H13.4845C12.7234 0 12.1062 0.762837 12.1062 1.70416V22.2958C12.1062 23.2372 12.7233 24 13.4845 24H15.0503C14.2892 24 13.672 23.2372 13.672 22.2957Z" fill="#31A845"/>
<path id="Shape" fill-rule="evenodd" clip-rule="evenodd" d="M44.7784 41.1335C45.1621 41.1335 45.473 40.818 45.473 40.4288V25.6543C45.473 24.3537 44.4299 23.2955 43.1479 23.2955H34.3371C34.3533 23.2582 34.3684 23.2283 34.3823 23.2006C34.3898 23.1857 34.3969 23.1715 34.4038 23.1571C34.5514 22.8465 34.5509 22.4656 34.5416 13.8726C34.5385 11.0309 34.5345 7.29113 34.5345 2.35885C34.5346 1.05816 33.4914 0 32.2093 0H13.5934C12.3113 0 11.2682 1.05816 11.2682 2.35875C11.2682 7.37029 11.2636 11.1481 11.2602 14.0031C11.25 22.4014 11.2495 22.8151 11.4032 23.1601C11.4111 23.178 11.4195 23.1957 11.4283 23.2143C11.44 23.2389 11.4524 23.2651 11.4656 23.2954H2.65471C1.37261 23.2954 0.32959 24.3536 0.32959 25.6542V45.6412C0.32959 46.9418 1.3727 48 2.65471 48H21.2707C21.9054 48 22.4813 47.7404 22.9013 47.3208C23.3213 47.7405 23.8973 48 24.5319 48H43.1479C44.43 48 45.473 46.9418 45.473 45.6412V42.9186C45.473 42.5294 45.1621 42.2139 44.7784 42.2139C44.3947 42.2139 44.0838 42.5294 44.0838 42.9186V45.6412C44.0838 46.1647 43.6639 46.5907 43.1479 46.5907H24.5319C24.0158 46.5907 23.596 46.1647 23.596 45.6412V25.6543C23.596 25.1308 24.0158 24.7049 24.5319 24.7049H43.1479C43.6638 24.7049 44.0837 25.1308 44.0837 25.6543V40.4288C44.0838 40.8179 44.3947 41.1335 44.7784 41.1335ZM21.2707 46.5907H2.65471C2.13875 46.5907 1.7189 46.1648 1.7189 45.6413V25.6543C1.7189 25.1308 2.13875 24.7049 2.65471 24.7049H21.2707C21.7867 24.7049 22.2066 25.1308 22.2066 25.6543V45.6413C22.2067 46.1648 21.7868 46.5907 21.2707 46.5907ZM12.6575 22.346C12.6575 22.8695 13.0773 23.2954 13.5934 23.2954C14.3995 23.2954 31.4088 23.2954 32.2093 23.2952C32.7253 23.2952 33.1452 22.8693 33.1452 22.3458V2.35875C33.1452 1.83525 32.7253 1.40935 32.2093 1.40935H13.5934C13.0773 1.40935 12.6575 1.83525 12.6575 2.35875V22.346Z" fill="black"/>
<path id="Path_12" d="M27.4756 8.45908C27.1512 8.70635 27.0849 9.17493 27.3276 9.50555C27.9659 10.3751 28.3034 11.4106 28.3034 12.5001C28.3034 15.2598 26.1002 17.5048 23.3918 17.5048C20.6835 17.5048 18.4804 15.2598 18.4804 12.5001C18.4804 9.74049 20.6835 7.49536 23.3918 7.49536C24.071 7.49536 24.7282 7.63372 25.3452 7.90665C25.7166 8.07096 26.149 7.8973 26.3104 7.51853C26.4718 7.13977 26.3012 6.69944 25.9294 6.53492C25.127 6.17993 24.2732 6 23.3918 6C19.8744 6 17.0129 8.91592 17.0129 12.5C17.0129 16.0842 19.8744 19 23.3918 19C26.9092 19 29.7709 16.0842 29.7709 12.5C29.7709 11.0851 29.3324 9.73989 28.5027 8.60977C28.26 8.27924 27.8001 8.21181 27.4756 8.45908Z" fill="black"/>
<path id="Shape_2" fill-rule="evenodd" clip-rule="evenodd" d="M32.9023 29.0411C33.499 28.9059 34.1186 29.1098 34.5194 29.574C34.9198 30.0381 35.0327 30.6825 34.814 31.2557C34.6728 31.6258 34.6012 32.015 34.6012 32.4121C34.6012 34.1975 36.0491 35.65 37.8287 35.65C38.0663 35.65 38.3072 35.6227 38.5444 35.5689C39.1413 35.4337 39.7608 35.6379 40.1611 36.1017C40.5618 36.5654 40.675 37.2098 40.4563 37.7832C39.4941 40.3054 37.0394 42 34.3478 42C30.7419 42 27.8081 39.0569 27.8081 35.4393C27.8081 32.3521 29.903 29.721 32.9023 29.0411ZM38.8639 36.9878C38.522 37.0653 38.1737 37.1045 37.8288 37.1045C35.2498 37.1045 33.1514 34.9995 33.1517 32.4121C33.1517 31.8367 33.2555 31.2727 33.4602 30.736C33.4874 30.6644 33.4734 30.584 33.4234 30.5262C33.3838 30.4802 33.3267 30.4547 33.2676 30.4547C33.2525 30.4547 33.2372 30.4564 33.222 30.4598C30.8881 30.989 29.2581 33.0367 29.2581 35.4393C29.2581 38.2548 31.5413 40.5455 34.3479 40.5455C36.4428 40.5455 38.3535 39.2265 39.1023 37.2634C39.1294 37.192 39.1154 37.1118 39.0655 37.0541L39.0652 37.0537C39.0155 36.9963 38.9383 36.9709 38.8639 36.9878Z" fill="black"/>
<path id="Shape_3" fill-rule="evenodd" clip-rule="evenodd" d="M14.2184 32.2024L16.4696 32.548C17.145 32.6517 17.6954 33.1419 17.906 33.827C18.1169 34.5125 17.9444 35.2509 17.4559 35.7541L15.8265 37.4317L16.2114 39.8005C16.4008 40.9671 15.5454 41.998 14.4572 41.998C13.993 41.998 13.8256 41.9038 12.5881 41.208C12.3191 41.0567 11.9996 40.877 11.6155 40.6637C11.2283 40.8788 10.9066 41.0598 10.6362 41.2119C9.40445 41.9049 9.23532 42 8.77219 42C7.70261 42 6.82841 40.9806 7.01975 39.8008L7.40436 37.4318L5.77533 35.7543C4.71976 34.667 5.3033 32.7721 6.76133 32.548L9.01295 32.2024L10.0199 30.0473C10.6723 28.6511 12.5591 28.6508 13.2114 30.0473L14.2184 32.2024ZM14.5483 36.6202L16.4491 34.6632C16.5416 34.568 16.5742 34.4282 16.5341 34.2981L16.534 34.2979C16.4941 34.1683 16.3899 34.0755 16.262 34.056L13.6356 33.6527C13.4007 33.6166 13.1976 33.4607 13.0925 33.2359L11.9177 30.7216C11.8605 30.5992 11.7447 30.5232 11.6154 30.5232C11.4862 30.5232 11.3705 30.5992 11.3132 30.7217L10.1386 33.2359C10.0336 33.4608 9.83044 33.6166 9.59553 33.6527L6.9688 34.056C6.69579 34.098 6.58092 34.4558 6.78234 34.6633L8.68285 36.6202C8.85279 36.7953 8.93043 37.0475 8.89031 37.2947L8.4417 40.0583C8.41982 40.1927 8.47125 40.3261 8.57566 40.4062C8.68026 40.4866 8.81623 40.4971 8.93071 40.4335L11.2799 39.1289C11.49 39.0122 11.7409 39.0122 11.9512 39.1289L14.3008 40.4336C14.5459 40.5698 14.8367 40.3493 14.7897 40.0585L14.3408 37.2949C14.3006 37.0475 14.3781 36.7953 14.5483 36.6202Z" fill="black"/>
</g>
</g>
</svg>
