<svg width="51" height="51" viewBox="0 0 51 51" fill="none" xmlns="http://www.w3.org/2000/svg">
<g id="Icon">
<g id="027-shirt">
<path id="Path" d="M33.8984 11.0824L50.1547 18.5941C50.3648 18.6911 50.4769 18.9243 50.422 19.1499L48.46 27.2164C48.4186 27.3869 48.2886 27.5217 48.1204 27.5686L41.4427 29.4329L39.5946 49.121C39.5478 49.6193 39.1315 50 38.6335 50H25.9978H13.362C12.864 50 12.4478 49.6192 12.401 49.121L10.5528 29.4329L3.68477 27.5673C3.51495 27.5213 3.38364 27.3859 3.34188 27.2142L1.38081 19.1516C1.32572 18.9252 1.43876 18.6913 1.64994 18.5949L18.0982 11.0809C18.2149 11.0276 18.3415 11 18.4698 11C18.6521 11 18.8312 11.0543 18.98 11.1601C20.5634 12.2863 22.4907 12.9403 24.5498 12.9403H27.4457C29.4473 12.9403 31.3938 12.3118 33.0158 11.159C33.164 11.0537 33.3425 11 33.524 11C33.6533 11 33.7809 11.0281 33.8984 11.0824Z" fill="#BD565A"/>
<path id="Path_2" d="M50.422 19.0946L48.46 27.1756C48.4186 27.3464 48.2886 27.4814 48.1204 27.5284L41.4427 29.396L39.5946 49.1194C39.5478 49.6186 39.1315 50 38.6335 50H25.9978H13.362C12.864 50 12.4478 49.6185 12.401 49.1194L10.5528 29.396L3.68477 27.5271C3.51495 27.481 3.38364 27.3454 3.34188 27.1734L1.38081 19.0963C1.32572 18.8695 1.43876 18.6352 1.64994 18.5386L15.7885 12.0682C17.5812 14.9951 20.7878 16.8954 24.3759 16.8954H27.4044C29.8048 16.8954 32.1311 16.032 33.9547 14.4642C34.7794 13.7552 35.4781 12.9209 36.0314 12L50.1547 18.5378C50.3648 18.635 50.4769 18.8686 50.422 19.0946Z" fill="#FA8C73"/>
<path id="Path_3" d="M40.5111 30H40.622L38.8256 49.1452C38.7802 49.6298 38.3756 50 37.8915 50H28.8455C34.4006 45.1132 38.5669 38.115 40.5111 30Z" fill="#F07462"/>
<path id="Shape" fill-rule="evenodd" clip-rule="evenodd" d="M36.0314 12L50.1548 18.4384C50.3649 18.5342 50.4769 18.7642 50.4219 18.9869L48.46 26.9451C48.4185 27.1133 48.2887 27.2462 48.1203 27.2925L41.9207 29L39.644 27.1663L36.9823 17.2966C36.9499 17.1765 36.872 17.0737 36.7651 17.01L33.2922 14.9405C33.5192 14.7787 33.7408 14.6079 33.9547 14.4268C34.7795 13.7286 35.4781 12.9069 36.0314 12ZM18.3642 14.9373C18.3875 14.9228 18.4119 14.9119 18.4364 14.9018C17.3831 14.1401 16.4802 13.1794 15.7885 12.0671L1.64994 18.4392C1.43876 18.5344 1.32571 18.7651 1.38081 18.9885L3.34178 26.943C3.38355 27.1124 3.51486 27.2459 3.68467 27.2913L9.887 28.9535L12.1584 27.1664L14.8201 17.2966C14.8516 17.1797 14.9263 17.0791 15.0292 17.015L18.3642 14.9373Z" fill="#F26152"/>
<path id="Shape_2" fill-rule="evenodd" clip-rule="evenodd" d="M27.3031 18.931H24.2852C20.0445 18.931 16.3387 16.2509 14.8837 12.3515L17.6369 11.0835C18.5943 13.8713 21.2074 15.8733 24.2852 15.8733H27.3031C30.4117 15.8733 33.0464 13.8314 33.9798 11L36.7295 12.2808C36.1363 13.9003 35.1438 15.3571 33.8306 16.4931C32.0133 18.0653 29.6951 18.931 27.3031 18.931ZM39.4507 49.117L39.6407 47.0762H12.1621L12.3521 49.117C12.3987 49.6175 12.8135 50 13.3098 50H25.9014H38.493C38.9893 50 39.4041 49.6176 39.4507 49.117Z" fill="#DD5652"/>
<path id="Shape_3" fill-rule="evenodd" clip-rule="evenodd" d="M42.1984 14.7696L49.7288 18.2722C50.2566 18.5176 50.5392 19.1116 50.4008 19.6845L48.4583 27.724C48.3538 28.156 48.0269 28.4981 47.605 28.6166L41.4804 30.3377L39.888 47.4134L39.8861 47.4342L39.6983 49.4475C39.6158 50.3325 38.893 51 38.0169 51H12.9951C12.1191 51 11.3962 50.3325 11.3137 49.4475L11.126 47.4349L11.1252 47.4268L11.124 47.4126L9.53206 30.3415L3.22358 28.6166C2.79747 28.5001 2.46735 28.1572 2.36217 27.7216L0.420572 19.6861C0.281467 19.1109 0.566128 18.516 1.09733 18.2717L14.2498 12.2236L14.264 12.2171L16.9837 10.9664L16.9922 10.9625L17.001 10.9584L17.383 10.7828C17.5945 10.6854 17.8199 10.636 18.0525 10.636C18.2394 10.636 18.4214 10.6675 18.5924 10.7286L24.6773 7.99516V7.53148C24.673 7.33077 24.7484 7.13224 24.8937 6.98532L27.0851 4.76831C27.3813 4.46868 27.5444 4.07074 27.5444 3.6478C27.5444 2.46026 26.587 1.49414 25.4102 1.49414C24.2334 1.49414 23.276 2.46026 23.276 3.6478C23.276 4.06038 22.9478 4.39487 22.5429 4.39487C22.138 4.39487 21.8097 4.06038 21.8097 3.6478C21.8097 1.63639 23.4249 0 25.4102 0C27.3955 0 29.0107 1.63639 29.0107 3.648C29.0107 4.47217 28.6938 5.24664 28.1182 5.82885L26.1437 7.82652V7.99556L32.3174 10.7689C32.5169 10.6816 32.7338 10.6363 32.9579 10.6363C33.1925 10.6363 33.4197 10.6866 33.633 10.7858L33.8273 10.8762C33.8344 10.8794 33.8415 10.8826 33.8486 10.886L36.5615 12.1479L36.578 12.1556L39.5329 13.53C39.9012 13.7013 40.0635 14.1445 39.8954 14.5198C39.7271 14.8951 39.2922 15.0604 38.924 14.8891L36.6494 13.8312C36.216 14.7904 35.6476 15.6807 34.9655 16.4714L36.2995 17.2825C36.4629 17.382 36.5822 17.5423 36.6316 17.7297L39.2433 27.6106L40.9356 28.9409L47.0706 27.2168L48.9253 19.5409L41.5895 16.1288C41.2212 15.9575 41.0589 15.5143 41.2271 15.139C41.3952 14.7636 41.83 14.5983 42.1984 14.7696ZM25.4103 9.29885L18.5139 12.3969C18.4912 12.4071 18.4682 12.416 18.445 12.4237C19.5401 14.389 21.6148 15.6481 23.9003 15.6481H26.8988C29.1451 15.6481 31.1758 14.4427 32.2857 12.5458C30.6738 13.5411 28.8397 14.064 26.9397 14.064H24.0723C22.9601 14.064 21.8641 13.8839 20.8146 13.5288C20.4303 13.3988 20.2222 12.9759 20.3499 12.5844C20.4774 12.1928 20.8923 11.9806 21.2767 12.1108C22.1769 12.4154 23.1175 12.5698 24.0723 12.5698H26.9397C28.2709 12.5698 29.5644 12.2708 30.7471 11.6962L25.4103 9.29885ZM3.7495 27.2135L1.89627 19.5437L9.29735 16.1403L14.1775 13.8962C14.6052 14.8257 15.162 15.6868 15.8241 16.4542L14.5089 17.2902C14.3516 17.3902 14.2373 17.5473 14.1891 17.7298L11.5737 27.6251L10.0312 28.9311L3.7495 27.2135ZM34.0691 46.6052H38.4904L40.0281 30.1146L38.1519 28.6395C38.0249 28.5397 37.9336 28.4002 37.8919 28.2424L35.2932 18.4103L33.8868 17.5552L33.8584 17.5798C31.9207 19.2537 29.4489 20.1756 26.8988 20.1756H23.9003C23.3182 20.1756 22.7331 20.1276 22.1614 20.0329C21.7618 19.9667 21.4906 19.5829 21.5555 19.1756C21.6204 18.7683 21.9974 18.4918 22.3967 18.5582C22.8908 18.6399 23.3967 18.6815 23.9003 18.6815H26.8987C29.102 18.6815 31.237 17.8855 32.9102 16.4401C33.932 15.5574 34.7546 14.4508 35.3156 13.2106L33.9292 12.5658C32.6847 15.3336 29.953 17.1421 26.8987 17.1421H23.9002C20.8851 17.1421 18.1665 15.3635 16.9051 12.6416L15.514 13.2813C16.4627 15.3316 18.1418 16.9951 20.2056 17.9047C20.5772 18.0686 20.7481 18.5084 20.5874 18.887C20.4267 19.2657 19.9952 19.44 19.6234 19.276C18.6272 18.837 17.7082 18.2459 16.8956 17.534L15.5299 18.4021L12.929 28.2424C12.8896 28.3913 12.806 28.5241 12.6896 28.6227L10.9797 30.0705L12.5216 46.6052H31.4598C31.8647 46.6052 32.193 46.9397 32.193 47.3523C32.193 47.7649 31.8647 48.0994 31.4598 48.0994H12.6609L12.7734 49.3062C12.7841 49.4201 12.8794 49.506 12.9951 49.506H38.0168C38.1326 49.506 38.228 49.4201 38.2385 49.3062L38.351 48.0994H34.0691C33.6642 48.0994 33.3359 47.7649 33.3359 47.3523C33.3359 46.9397 33.6642 46.6052 34.0691 46.6052Z" fill="black"/>
</g>
</g>
</svg>
