<svg width="15" height="16" viewBox="0 0 15 16" fill="none" xmlns="http://www.w3.org/2000/svg">
<path d="M11.5 5V4C11.5 1.8125 9.6875 0 7.5 0C5.28125 0 3.5 1.8125 3.5 4V5H0.5V13.5C0.5 14.9062 1.59375 16 3 16H12C13.375 16 14.5 14.9062 14.5 13.5V5H11.5ZM5.5 4C5.5 2.90625 6.375 2 7.5 2C8.59375 2 9.5 2.90625 9.5 4V5H5.5V4ZM10.5 7.75C10.0625 7.75 9.75 7.4375 9.75 7C9.75 6.59375 10.0625 6.25 10.5 6.25C10.9062 6.25 11.25 6.59375 11.25 7C11.25 7.4375 10.9062 7.75 10.5 7.75ZM4.5 7.75C4.0625 7.75 3.75 7.4375 3.75 7C3.75 6.59375 4.0625 6.25 4.5 6.25C4.90625 6.25 5.25 6.59375 5.25 7C5.25 7.4375 4.90625 7.75 4.5 7.75Z" fill="#423127"/>
</svg>
